<?xml version="1.0" encoding="utf-8"?>
<!-- Generator: Adobe Illustrator 24.3.0, SVG Export Plug-In . SVG Version: 6.00 Build 0)  -->
<svg version="1.1" id="Layer_1" xmlns="http://www.w3.org/2000/svg" xmlns:xlink="http://www.w3.org/1999/xlink" x="0px" y="0px" width="28" height="28"
	 viewBox="0 0 1200 1200" style="enable-background:new 0 0 1200 1200;" xml:space="preserve">
<g>
	<path d="M39.9868279,598.9936523c0-309,250.9999847-560,560-560s560,251,560,560c0,309.0004883-251,560.0004883-560,560.0004883
		S39.9868279,907.9941406,39.9868279,598.9936523z M1079.9868164,598.9936523c0-265-215-480-480-480s-480,215-480,480
		c0,265.0004883,215,480.0004883,480,480.0004883S1079.9868164,863.9941406,1079.9868164,598.9936523z M306.9868164,641.9941406
		l53-78.0004883c33-50,83-70,130-70s100,21,134,69l18,26c18,26.0004883,40,35.0004883,68,35.0004883s45-7,64-34.0004883l53-78
		c7-11,19-18,33-18c35,0,49,38,33,62l-53,78.0004883c-33,50-83,70-130,70s-100-21-134-69l-18-26
		c-18-26.0004883-40-35.0004883-68-35.0004883s-45,7-64,34.0004883l-53,78c-7,11-19,18-33,18
		C304.9868164,703.9941406,290.9868164,665.9941406,306.9868164,641.9941406z"/>
</g>
</svg>
