<svg width="100" height="32" viewBox="0 0 151 53" fill="none" xmlns="http://www.w3.org/2000/svg">
<circle cx="26.5" cy="26.5" r="25" stroke="black" stroke-width="3"/>
<path d="M12.992 30.536C13.424 30.536 13.928 30.32 14.288 29.96L17.96 26.288C19.04 25.208 19.976 24.776 21.056 24.776C22.208 24.776 23.144 25.208 24.224 26.216L26.24 28.304C27.968 29.96 29.84 30.752 31.856 30.752C33.944 30.752 35.816 29.96 37.544 28.232L41.216 24.488C41.576 24.128 41.792 23.696 41.792 23.192C41.792 22.112 41 21.392 39.992 21.392C39.488 21.392 39.056 21.608 38.696 21.968L35.024 25.64C33.944 26.72 33.008 27.152 31.856 27.152C30.776 27.152 29.768 26.72 28.76 25.64L26.672 23.624C25.016 21.896 23.144 21.176 21.056 21.176C19.04 21.176 17.168 21.968 15.44 23.696L11.696 27.368C11.336 27.728 11.12 28.232 11.12 28.664C11.12 29.744 11.984 30.536 12.992 30.536Z" fill="black"/>
<path d="M76.6056 43C83.0709 43 86.2111 38.339 86.2111 32.2797V11.6314C86.2111 10.6992 85.5646 10 84.5948 10C83.6712 10 82.9785 10.6992 82.9785 11.6314V32.2797C82.9785 36.428 81.316 39.7373 76.6056 39.7373C71.8951 39.7373 70.2326 36.428 70.2326 32.2797V11.6314C70.2326 10.6992 69.5399 10 68.6163 10C67.6927 10 67 10.6992 67 11.6314V32.2797C67 38.339 70.1403 43 76.6056 43Z" fill="black"/>
<path d="M93.4633 42.6271C94.3869 42.6271 95.0796 41.928 95.0796 40.9958V29.5297C95.0796 24.6822 96.6959 21.7924 98.9126 21.7924C100.252 21.7924 101.037 22.5847 101.037 23.8898V24.4025C101.037 25.3347 101.73 26.0339 102.653 26.0339C103.577 26.0339 104.27 25.3347 104.27 24.4025V23.8898C104.27 20.9534 102.515 18.9492 99.6515 18.9492C97.481 18.9492 95.957 20.3008 95.0796 21.8856V20.9534C95.0796 20.0212 94.3869 19.322 93.4633 19.322C92.5397 19.322 91.847 20.0212 91.847 20.9534V40.9958C91.847 41.928 92.5397 42.6271 93.4633 42.6271Z" fill="black"/>
<path d="M116.26 43C121.109 43 123.879 37.5932 123.879 30.9746C123.879 24.3559 121.109 18.9492 116.26 18.9492C113.997 18.9492 112.103 20.0678 111.18 21.8856V11.6314C111.18 10.6992 110.487 10 109.563 10C108.64 10 107.947 10.6992 107.947 11.6314V40.9958C107.947 41.928 108.64 42.6271 109.563 42.6271C110.487 42.6271 111.18 41.928 111.18 40.9958V40.0636C112.103 41.8814 113.997 43 116.26 43ZM111.18 30.9746C111.18 25.8475 112.981 22.2119 116.029 22.2119C119.03 22.2119 120.647 26.267 120.647 30.9746C120.647 35.6822 119.03 39.7373 116.029 39.7373C112.981 39.7373 111.18 36.0551 111.18 30.9746Z" fill="black"/>
<path d="M130.81 42.6271C131.734 42.6271 132.426 41.928 132.426 40.9958V20.9534C132.426 20.0212 131.734 19.322 130.81 19.322C129.886 19.322 129.194 20.0212 129.194 20.9534V40.9958C129.194 41.928 129.886 42.6271 130.81 42.6271ZM128.824 12.5636C128.824 13.7288 129.656 14.5678 130.81 14.5678C131.965 14.5678 132.796 13.7288 132.796 12.5636V12.0042C132.796 10.839 131.965 10 130.81 10C129.656 10 128.824 10.839 128.824 12.0042V12.5636Z" fill="black"/>
<path d="M144.073 42.6271C144.997 42.6271 145.689 41.8814 145.689 40.9492V22.5847H149.337C150.261 22.5847 151 21.8856 151 20.9534C151 20.0212 150.261 19.322 149.337 19.322H145.689V13.6356C145.689 12.7034 144.997 11.9576 144.073 11.9576C143.149 11.9576 142.457 12.7034 142.457 13.6356V19.322H138.808C137.839 19.322 137.146 20.0212 137.146 20.9534C137.146 21.8856 137.839 22.5847 138.808 22.5847H142.457V40.9492C142.457 41.8814 143.149 42.6271 144.073 42.6271Z" fill="black"/>
</svg>
